<svg width="75" height="75" viewBox="0 0 75 75" fill="none" xmlns="http://www.w3.org/2000/svg">
<path d="M33.5937 6.25H15.375C13.2188 6.25 11.4688 8 11.4688 10.1562V23.1875C11.4688 25.3438 13.2188 27.0938 15.375 27.0938H37.5V10.1562C37.5 8 35.75 6.25 33.5937 6.25ZM59.625 27.0938H37.5V47.9375H59.625C61.7812 47.9375 63.5312 46.1875 63.5312 44.0313V31C63.5312 28.8438 61.7812 27.0938 59.625 27.0938ZM11.4688 51.8125V64.8438C11.4688 67 13.2188 68.75 15.375 68.75H33.5937C35.75 68.75 37.5 67 37.5 64.8438V47.9062H15.375C13.2188 47.9062 11.4688 49.6562 11.4688 51.8125Z" fill="black"/>
</svg>
