<svg width="75" height="75" viewBox="0 0 75 75" fill="none" xmlns="http://www.w3.org/2000/svg">
<g clip-path="url(#clip0_11_2)">
<path d="M37.5 0C16.7836 0 0 16.7836 0 37.5C0 58.2164 16.7836 75 37.5 75C58.2164 75 75 58.2164 75 37.5C75 16.7836 58.2164 0 37.5 0ZM21.7523 24C24.1078 24 25.9406 25.718 26.1469 27.7477C26.3695 29.5781 25.6102 31.1789 23.5852 32.1422C22.5094 32.6789 22.0828 32.6789 21.8625 32.3602C21.7523 32.1422 21.8625 31.9359 22.0805 31.7133C24.0117 30.1172 24.0117 28.8234 23.7891 27.0047C23.6789 25.8211 22.8258 25.0734 21.9703 25.0734C18.2109 25.0734 12.8648 33.4242 13.6078 39.5391C13.9383 41.8945 15.3305 44.6789 18.3211 44.6789C19.2867 44.6789 20.3625 44.3602 21.3234 43.9359C22.8867 43.1039 23.8266 42.4711 24.7547 41.4328C24.5227 38.6602 26.9508 35.0367 30.5391 35.0367C32.1516 35.0367 33.4336 35.6836 33.5414 36.8672C33.75 38.468 32.3578 38.6859 31.9312 38.6859C31.5047 38.6859 30.7477 38.5758 30.7477 38.1492C30.6516 37.7203 31.7109 37.9313 31.6125 36.9656C31.5023 36.3188 30.8555 36.1125 30.2227 36.1125C27.9633 36.1125 26.6813 39.225 27 41.1398C27.1102 42.0047 27.5344 42.8625 28.4039 42.8625C29.0391 42.8625 30.0047 41.8969 30.3187 40.507C30.5367 39.5414 31.3945 38.8945 32.1492 38.8945C32.468 38.8945 32.6742 39.0047 32.7844 39.4312V39.8602C32.6883 40.2891 32.3555 41.5828 32.468 41.8969C32.468 42.1195 32.5781 42.4336 33.0023 42.4336C33.2836 42.4336 34.3594 41.8711 35.4328 40.9922C35.7867 39.1477 36.2133 36.9398 36.2133 36.757C36.3234 36 36.6422 35.2547 38.1422 35.2547C38.4703 35.2547 38.6789 35.3648 38.7891 35.7914V36.2203L38.3602 38.1492C39.7547 36.3305 41.7914 35.0484 43.0734 35.0484C43.6102 35.0484 44.0391 35.3648 44.0391 35.9016C44.0391 36.2203 44.0391 36.757 43.8164 37.2961C43.3922 38.468 42.8531 40.2984 42.5344 41.8969C42.5344 42.3258 42.6445 42.7523 43.1812 42.7523C43.718 42.7523 45.3187 42.1172 46.6008 40.3969L46.6266 40.3852C46.6266 40.1766 46.6008 39.9703 46.6008 39.7641C46.6008 38.4703 46.7109 37.4086 46.9313 36.6516C47.1492 35.7961 48.2133 35.0508 48.8602 35.0508C49.1766 35.0508 49.507 35.257 49.507 35.5758C49.507 35.6859 49.507 35.9039 49.3969 36.0047C48.968 37.4086 48.6375 38.6883 48.6375 39.9703C48.6375 40.7273 48.75 41.7891 48.968 42.4359C48.968 42.5461 49.0641 42.6539 49.1742 42.6539C49.3969 42.6539 50.8969 41.2641 51.9586 39.4312C50.993 38.7961 50.4562 37.7227 50.4562 36.4406C50.4562 34.1836 51.8625 33.0094 53.1445 33.0094C54.2203 33.0094 55.0734 33.757 55.0734 35.257C55.0734 36.2227 54.7547 37.2984 54.2203 38.2594H54.5367C55.2211 38.2852 55.8938 38.0039 56.3555 37.5164C56.4576 37.3534 56.6073 37.2258 56.7844 37.1508C57.8344 35.8195 59.3719 34.8328 61.1906 34.8328C62.6906 34.8328 64.0711 35.4797 64.1813 36.6516C64.3992 38.2617 62.9977 38.5805 62.5687 38.5805C62.1445 38.5805 61.3875 38.4703 61.3875 38.0438C61.3875 37.6172 62.3508 37.8258 62.2523 36.8719C62.1422 36.225 61.4953 36.007 60.8484 36.007C58.7109 36.007 57.3211 38.7891 57.6352 41.0484C57.7453 41.9016 58.1719 42.8672 59.0297 42.8672C59.6766 42.8672 60.6398 41.9016 61.0664 40.5117C61.2727 39.6586 62.1422 38.8992 62.8852 38.8992C63.2133 38.8992 63.4219 39.0094 63.532 39.4359C63.532 39.6586 63.532 40.0828 63.1031 41.4773C62.5664 42.4406 62.5664 42.9773 62.6789 43.4063C62.775 44.2594 63.2039 44.9062 63.6422 45.225C63.7201 45.3247 63.7899 45.4305 63.8508 45.5414C63.8508 45.7641 63.7383 45.982 63.4219 45.982C63.3117 45.982 63.2133 45.982 63.1031 45.8719C61.493 45.225 60.8461 44.1492 60.6375 43.0758C59.9906 43.8328 59.2477 44.2594 58.3805 44.2594C56.9859 44.2594 55.6078 42.9773 55.3898 41.3648C55.325 40.681 55.4041 39.9913 55.6219 39.3398C54.9867 39.743 54.3023 39.975 53.6695 39.975H53.1445C51.7406 42.0117 50.2383 43.4063 49.1766 44.0414C48.811 44.2366 48.4069 44.3487 47.993 44.3695C47.7867 44.3695 47.4586 44.2594 47.3578 44.0414C47.0555 43.5656 46.8703 42.8203 46.7484 41.9672C45.2461 43.6008 43.1695 44.4797 42.2086 44.4797C41.1328 44.4797 40.5 43.8328 40.3898 42.7617V41.5898C40.7062 39.2344 41.5734 37.8305 41.5734 37.4016C41.5672 37.3451 41.5416 37.2926 41.501 37.2529C41.4604 37.2131 41.4073 37.1887 41.3508 37.1836C40.6078 37.1836 38.1422 39.7594 37.7133 41.4797L37.3852 42.8695C37.1766 43.8328 36.2133 44.4797 35.5664 44.4797C35.2477 44.4797 35.0297 44.3695 34.9313 43.9453V43.5164L35.0648 42.7852C33.7078 43.7484 32.3531 44.3695 31.7062 44.3695C30.743 44.3695 30.2063 43.8328 30.1102 43.0758C29.4633 43.9453 28.7156 44.3695 27.7547 44.3695C26.6414 44.3695 25.5703 43.6125 25.057 42.5156C24.2859 43.3805 23.4188 44.2477 22.3945 44.9062C20.8945 45.8719 19.1859 46.6148 17.1445 46.6148C15.3258 46.6148 13.7156 45.6492 12.8602 44.7961C11.5664 43.6125 10.8234 41.7937 10.7133 40.0828C10.0781 34.8352 13.2891 28.0828 18.2063 25.0805C19.3898 24.4336 20.5758 24.0094 21.7477 24.0094L21.7523 24ZM52.282 34.2914C51.9656 34.2914 51.7477 34.8281 51.7477 35.3508C51.7477 36.2203 52.1719 37.1812 52.7109 37.7203C52.9263 37.1339 53.0381 36.5145 53.0414 35.8898C53.0414 34.8305 52.6125 34.2937 52.282 34.2937V34.2914Z" fill="black"/>
</g>
<defs>
<clipPath id="clip0_11_2">
<rect width="75" height="75" fill="white"/>
</clipPath>
</defs>
</svg>
