<svg width="75" height="75" viewBox="0 0 75 75" fill="none" xmlns="http://www.w3.org/2000/svg">
<g clip-path="url(#clip0_11_8)">
<path d="M13.9406 13.1461C16.2609 15.0375 17.1398 14.9039 21.5203 14.6109L62.8172 12.1336C63.6961 12.1336 62.9648 11.2547 62.6695 11.107L55.8094 6.15001C54.5039 5.12344 52.7461 3.96563 49.3875 4.24454L9.41016 7.17422C7.94531 7.30782 7.65234 8.04141 8.23828 8.62735L13.9406 13.1461ZM16.418 22.7789V66.2227C16.418 68.5547 17.5781 69.4336 20.2031 69.2859L65.5898 66.6609C68.2148 66.5133 68.5195 64.9149 68.5195 63.0117V19.8609C68.5195 17.9555 67.7859 16.943 66.1758 17.0906L18.7523 19.8609C16.9945 20.0086 16.4203 20.8734 16.4203 22.7672L16.418 22.7789ZM61.2188 25.0969C61.5117 26.4164 61.2187 27.7219 59.8992 27.8813L57.7148 28.3219V60.3891C55.8094 61.4156 54.0656 62.0016 52.6125 62.0016C50.2688 62.0016 49.6828 61.268 47.9367 59.0836L33.6305 36.6234V58.3523L38.1586 59.3789C38.1586 59.3789 38.1586 62.0039 34.5094 62.0039L24.4383 62.5898C24.1453 62.0039 24.4383 60.5391 25.4648 60.2578L28.0898 59.5242V30.8016L24.4406 30.5086C24.1477 29.1891 24.8813 27.2977 26.918 27.1523L37.7203 26.4188L52.6125 49.1719V29.0414L48.8156 28.6008C48.5227 27.0023 49.6828 25.8305 51.1477 25.6945L61.2188 25.0969ZM6.05391 3.23438L47.6437 0.1711C52.7461 -0.269525 54.0656 0.0234437 57.2742 2.35547L70.5563 11.693C72.7406 13.2914 73.4742 13.732 73.4742 15.4781V66.6633C73.4742 69.8742 72.3023 71.7656 68.2242 72.0586L19.9078 74.9766C16.8563 75.1242 15.3914 74.6836 13.7789 72.6445L4.00078 59.9484C2.25469 57.6164 1.52344 55.8703 1.52344 53.8336V8.33907C1.52344 5.71407 2.69531 3.52969 6.05156 3.23673L6.05391 3.23438Z" fill="black"/>
</g>
<defs>
<clipPath id="clip0_11_8">
<rect width="75" height="75" fill="white"/>
</clipPath>
</defs>
</svg>
