<svg width="75" height="75" viewBox="0 0 75 75" fill="none" xmlns="http://www.w3.org/2000/svg">
<path fill-rule="evenodd" clip-rule="evenodd" d="M61.6201 56.25C53.9513 37.0988 45.0001 32.0512 45.0001 22.5V11.25H46.8751C47.3723 11.25 47.8493 11.0525 48.2009 10.7008C48.5525 10.3492 48.7501 9.87228 48.7501 9.375V5.625C48.7501 5.12772 48.5525 4.65081 48.2009 4.29917C47.8493 3.94754 47.3723 3.75 46.8751 3.75H28.1251C27.6278 3.75 27.1509 3.94754 26.7992 4.29917C26.4476 4.65081 26.2501 5.12772 26.2501 5.625V9.375C26.2501 9.87228 26.4476 10.3492 26.7992 10.7008C27.1509 11.0525 27.6278 11.25 28.1251 11.25H30.0001V22.5C30.0001 32.0512 21.0488 37.0988 13.3801 56.25C10.9388 62.3438 4.6688 71.25 37.5001 71.25C70.3313 71.25 64.0613 62.3438 61.6201 56.25ZM55.5563 62.8162C52.9238 63.6037 47.6851 64.5 37.5001 64.5C27.3151 64.5 22.0763 63.6037 19.4438 62.8162C18.5101 62.5387 18.1463 61.455 18.4763 60.4612C19.3013 57.9487 20.8576 53.6062 23.7676 48.7575C30.8776 36.9112 38.2538 50.6212 44.3926 50.6212C50.5313 50.6212 48.8476 44.7675 51.2326 48.7575C53.426 52.4499 55.2007 56.3754 56.5238 60.4612C56.8538 61.455 56.4901 62.535 55.5563 62.8162Z" fill="black"/>
</svg>
