<svg width="75" height="75" viewBox="0 0 75 75" fill="none" xmlns="http://www.w3.org/2000/svg">
<path fill-rule="evenodd" clip-rule="evenodd" d="M46.8748 6.25C49.4139 6.24984 51.8928 7.02292 53.9817 8.46636C56.0706 9.9098 57.6703 11.9552 58.5681 14.3302C59.4659 16.7053 59.6191 19.2974 59.0073 21.7617C58.3956 24.226 57.0479 26.4456 55.1436 28.125C57.4728 30.1744 58.9566 33.0168 59.3066 36.0995C59.6565 39.1821 58.8476 42.2848 57.0371 44.8042C55.2265 47.3236 52.5438 49.0796 49.5105 49.7309C46.4771 50.3822 43.31 49.8822 40.6248 48.3281V56.25C40.6247 58.3387 40.1012 60.3941 39.1021 62.2284C38.103 64.0626 36.6602 65.6173 34.9055 66.7503C33.1509 67.8834 31.1402 68.5587 29.0573 68.7145C26.9745 68.8703 24.8857 68.5017 22.982 67.6424C21.0783 66.783 19.4202 65.4603 18.1593 63.7951C16.8984 62.1299 16.0749 60.1753 15.764 58.1099C15.4532 56.0444 15.6648 53.934 16.3796 51.9714C17.0944 50.0089 18.2896 48.2567 19.8561 46.875C18.5261 45.7019 17.461 44.2593 16.7315 42.6429C16.002 41.0265 15.6247 39.2734 15.6248 37.5C15.6247 35.7266 16.002 33.9735 16.7315 32.3571C17.461 30.7407 18.5261 29.2981 19.8561 28.125C17.9517 26.4456 16.604 24.226 15.9923 21.7617C15.3805 19.2974 15.5337 16.7053 16.4315 14.3302C17.3293 11.9552 18.929 9.9098 21.0179 8.46636C23.1068 7.02292 25.5857 6.24984 28.1248 6.25H46.8748ZM34.3748 50H28.1248C26.8887 50 25.6803 50.3666 24.6525 51.0533C23.6247 51.7401 22.8236 52.7162 22.3506 53.8582C21.8775 55.0003 21.7537 56.2569 21.9949 57.4693C22.2361 58.6817 22.8313 59.7953 23.7054 60.6694C24.5795 61.5435 25.6931 62.1388 26.9055 62.3799C28.1179 62.6211 29.3745 62.4973 30.5166 62.0242C31.6586 61.5512 32.6347 60.7501 33.3215 59.7223C34.0082 58.6945 34.3748 57.4861 34.3748 56.25V50ZM34.3748 31.25H28.1248C26.4672 31.25 24.8775 31.9085 23.7054 33.0806C22.5333 34.2527 21.8748 35.8424 21.8748 37.5C21.8748 39.1576 22.5333 40.7473 23.7054 41.9194C24.8775 43.0915 26.4672 43.75 28.1248 43.75H34.3748V31.25ZM46.8748 31.25C45.2172 31.25 43.6275 31.9085 42.4554 33.0806C41.2833 34.2527 40.6248 35.8424 40.6248 37.5C40.6248 39.1576 41.2833 40.7473 42.4554 41.9194C43.6275 43.0915 45.2172 43.75 46.8748 43.75C48.5324 43.75 50.1221 43.0915 51.2942 41.9194C52.4663 40.7473 53.1248 39.1576 53.1248 37.5C53.1248 35.8424 52.4663 34.2527 51.2942 33.0806C50.1221 31.9085 48.5324 31.25 46.8748 31.25ZM46.8748 12.5H40.6248V25H46.8748C48.4966 25.0073 50.0578 24.3838 51.2284 23.2613C52.399 22.1388 53.0875 20.6053 53.1484 18.9846C53.2092 17.3639 52.6377 15.783 51.5545 14.5759C50.4713 13.3688 48.9614 12.63 47.3436 12.5156L46.8748 12.5ZM34.3748 12.5H28.1248C26.4672 12.5 24.8775 13.1585 23.7054 14.3306C22.5333 15.5027 21.8748 17.0924 21.8748 18.75C21.8748 20.4076 22.5333 21.9973 23.7054 23.1694C24.8775 24.3415 26.4672 25 28.1248 25H34.3748V12.5Z" fill="black"/>
</svg>
