<svg width="75" height="75" viewBox="0 0 75 75" fill="none" xmlns="http://www.w3.org/2000/svg">
<path d="M43.9562 18.8374V25.7749H61.8594C62.0156 25.7728 62.1698 25.778 62.3219 25.7905L44.0313 43.7655C43.9813 43.4461 43.9562 43.1232 43.9562 42.7999V25.7718H36.6031V42.803C36.6031 50.0593 42.65 55.9968 49.9094 55.9968H67.6437V49.0593H49.9094C49.8469 49.0593 49.7854 49.0562 49.725 49.0499L67.6281 31.4593C67.6406 31.6301 67.6469 31.803 67.6469 31.978V49.0562H75V31.978C75.0004 30.2523 74.6608 28.5433 74.0006 26.9488C73.3403 25.3544 72.3724 23.9056 71.1521 22.6853C69.9318 21.465 68.483 20.4971 66.8886 19.8368C65.2941 19.1766 63.5851 18.837 61.8594 18.8374H43.9562ZM0 25.7655L25.875 54.7218C28.4969 57.6593 33.3625 55.803 33.3625 51.8655V25.7655H25.5937V42.7655L10.4062 25.7655H0Z" fill="black"/>
</svg>
