<svg width="75" height="75" viewBox="0 0 75 75" fill="none" xmlns="http://www.w3.org/2000/svg">
<path d="M9.375 9.375H65.625V65.625H9.375V9.375Z" stroke="black" stroke-width="6.25"/>
<path d="M21.875 53.125V37.5M21.875 37.5V21.875H29.6875C31.7595 21.875 33.7466 22.6981 35.2118 24.1632C36.6769 25.6284 37.5 27.6155 37.5 29.6875C37.5 31.7595 36.6769 33.7466 35.2118 35.2118C33.7466 36.6769 31.7595 37.5 29.6875 37.5H21.875ZM53.125 34.375H49.8531C48.7755 34.3756 47.7333 34.7594 46.9127 35.4578C46.092 36.1562 45.5466 37.1237 45.3737 38.1874C45.2009 39.251 45.412 40.3415 45.9693 41.2638C46.5265 42.1861 47.3937 42.8801 48.4156 43.2219L51.5844 44.2781C52.6063 44.6199 53.4735 45.3139 54.0307 46.2362C54.588 47.1585 54.7991 48.249 54.6263 49.3126C54.4534 50.3763 53.908 51.3438 53.0873 52.0422C52.2667 52.7406 51.2245 53.1244 50.1469 53.125H45.3125" stroke="black" stroke-width="6.25" stroke-linecap="square"/>
</svg>
